<mxfile host="app.diagrams.net" agent="Mozilla/5.0 (X11; Ubuntu; Linux x86_64; rv:135.0) Gecko/20100101 Firefox/135.0" version="26.0.15">
  <diagram name="Page-1" id="e7e014a7-5840-1c2e-5031-d8a46d1fe8dd">
    <mxGraphModel dx="2537" dy="1616" grid="1" gridSize="10" guides="1" tooltips="1" connect="1" arrows="1" fold="1" page="1" pageScale="1" pageWidth="1169" pageHeight="826" background="none" math="0" shadow="0">
      <root>
        <mxCell id="0" />
        <mxCell id="1" parent="0" />
        <mxCell id="U5L8bIT946rRlEJdHNtD-132" style="edgeStyle=orthogonalEdgeStyle;rounded=0;orthogonalLoop=1;jettySize=auto;html=1;exitX=0.5;exitY=0;exitDx=0;exitDy=0;entryX=0.5;entryY=1;entryDx=0;entryDy=0;endArrow=block;endFill=0;dashed=1;" parent="1" source="U5L8bIT946rRlEJdHNtD-73" target="U5L8bIT946rRlEJdHNtD-166" edge="1">
          <mxGeometry relative="1" as="geometry">
            <mxPoint x="570" y="-180" as="targetPoint" />
          </mxGeometry>
        </mxCell>
        <mxCell id="U5L8bIT946rRlEJdHNtD-73" value="Car" style="swimlane;fontStyle=1;align=center;verticalAlign=top;childLayout=stackLayout;horizontal=1;startSize=26;horizontalStack=0;resizeParent=1;resizeParentMax=0;resizeLast=0;collapsible=1;marginBottom=0;whiteSpace=wrap;html=1;" parent="1" vertex="1">
          <mxGeometry x="440" y="-30" width="260" height="258" as="geometry" />
        </mxCell>
        <mxCell id="U5L8bIT946rRlEJdHNtD-74" value="&lt;div&gt;+ currentSpeed: double&lt;/div&gt;&lt;div&gt;+ enginePower: double&lt;/div&gt;&lt;div&gt;+ carSize: int&lt;div&gt;&lt;/div&gt;&lt;div&gt;+ position: double[]&lt;/div&gt;&lt;div&gt;+ direction: double[]&lt;div&gt;+ movementHindrances: Set&amp;lt;String&amp;gt;&lt;/div&gt;&lt;/div&gt;&lt;/div&gt;" style="text;strokeColor=none;fillColor=none;align=left;verticalAlign=top;spacingLeft=4;spacingRight=4;overflow=hidden;rotatable=0;points=[[0,0.5],[1,0.5]];portConstraint=eastwest;whiteSpace=wrap;html=1;" parent="U5L8bIT946rRlEJdHNtD-73" vertex="1">
          <mxGeometry y="26" width="260" height="94" as="geometry" />
        </mxCell>
        <mxCell id="U5L8bIT946rRlEJdHNtD-75" value="" style="line;strokeWidth=1;fillColor=none;align=left;verticalAlign=middle;spacingTop=-1;spacingLeft=3;spacingRight=3;rotatable=0;labelPosition=right;points=[];portConstraint=eastwest;strokeColor=inherit;" parent="U5L8bIT946rRlEJdHNtD-73" vertex="1">
          <mxGeometry y="120" width="260" height="8" as="geometry" />
        </mxCell>
        <mxCell id="U5L8bIT946rRlEJdHNtD-76" value="&lt;div&gt;+ addMovementHindrance(String): void&lt;/div&gt;&lt;div&gt;&lt;div&gt;+ removeMovementHindrance(String): void&lt;br&gt;&lt;div&gt;+ move(): void&lt;/div&gt;&lt;div&gt;&lt;div&gt;+ gas(double): void&lt;/div&gt;&lt;div&gt;&lt;div&gt;+ break(double): void&lt;/div&gt;&lt;div&gt;+ turnLeft(): void&lt;/div&gt;&lt;div&gt;+ turnRight(): void&lt;/div&gt;&lt;/div&gt;+ speedFactor(): double&lt;/div&gt;&lt;/div&gt;&lt;/div&gt;" style="text;strokeColor=none;fillColor=none;align=left;verticalAlign=top;spacingLeft=4;spacingRight=4;overflow=hidden;rotatable=0;points=[[0,0.5],[1,0.5]];portConstraint=eastwest;whiteSpace=wrap;html=1;" parent="U5L8bIT946rRlEJdHNtD-73" vertex="1">
          <mxGeometry y="128" width="260" height="130" as="geometry" />
        </mxCell>
        <mxCell id="yrOVRIiMDCrw_vPQ0-g4-5" style="edgeStyle=orthogonalEdgeStyle;rounded=0;orthogonalLoop=1;jettySize=auto;html=1;exitX=0.5;exitY=1;exitDx=0;exitDy=0;entryX=0.5;entryY=0;entryDx=0;entryDy=0;endArrow=open;endFill=0;" edge="1" parent="1" source="U5L8bIT946rRlEJdHNtD-78" target="U5L8bIT946rRlEJdHNtD-90">
          <mxGeometry relative="1" as="geometry" />
        </mxCell>
        <mxCell id="yrOVRIiMDCrw_vPQ0-g4-11" style="edgeStyle=orthogonalEdgeStyle;rounded=0;orthogonalLoop=1;jettySize=auto;html=1;exitX=1.019;exitY=0.323;exitDx=0;exitDy=0;entryX=0;entryY=0.5;entryDx=0;entryDy=0;exitPerimeter=0;endArrow=open;endFill=0;" edge="1" parent="1" source="U5L8bIT946rRlEJdHNtD-81" target="U5L8bIT946rRlEJdHNtD-74">
          <mxGeometry relative="1" as="geometry" />
        </mxCell>
        <mxCell id="yrOVRIiMDCrw_vPQ0-g4-15" style="edgeStyle=orthogonalEdgeStyle;rounded=0;orthogonalLoop=1;jettySize=auto;html=1;exitX=1;exitY=0.75;exitDx=0;exitDy=0;entryX=-0.005;entryY=-0.025;entryDx=0;entryDy=0;endArrow=open;endFill=0;dashed=1;entryPerimeter=0;" edge="1" parent="1" source="U5L8bIT946rRlEJdHNtD-78" target="U5L8bIT946rRlEJdHNtD-137">
          <mxGeometry relative="1" as="geometry">
            <Array as="points">
              <mxPoint x="230" y="74" />
              <mxPoint x="230" y="500" />
              <mxPoint x="848" y="500" />
              <mxPoint x="848" y="415" />
            </Array>
          </mxGeometry>
        </mxCell>
        <mxCell id="U5L8bIT946rRlEJdHNtD-78" value="&lt;div&gt;CarController&lt;/div&gt;" style="swimlane;fontStyle=1;align=center;verticalAlign=top;childLayout=stackLayout;horizontal=1;startSize=26;horizontalStack=0;resizeParent=1;resizeParentMax=0;resizeLast=0;collapsible=1;marginBottom=0;whiteSpace=wrap;html=1;" parent="1" vertex="1">
          <mxGeometry x="-60" y="-90" width="160" height="218" as="geometry" />
        </mxCell>
        <mxCell id="U5L8bIT946rRlEJdHNtD-79" value="&lt;div&gt;+ timer: Timer&lt;/div&gt;&lt;div&gt;+ frame: CarView&lt;/div&gt;&lt;div&gt;+ cars: ArrayList&amp;lt;Car&amp;gt;&lt;/div&gt;" style="text;strokeColor=none;fillColor=none;align=left;verticalAlign=top;spacingLeft=4;spacingRight=4;overflow=hidden;rotatable=0;points=[[0,0.5],[1,0.5]];portConstraint=eastwest;whiteSpace=wrap;html=1;" parent="U5L8bIT946rRlEJdHNtD-78" vertex="1">
          <mxGeometry y="26" width="160" height="54" as="geometry" />
        </mxCell>
        <mxCell id="U5L8bIT946rRlEJdHNtD-80" value="" style="line;strokeWidth=1;fillColor=none;align=left;verticalAlign=middle;spacingTop=-1;spacingLeft=3;spacingRight=3;rotatable=0;labelPosition=right;points=[];portConstraint=eastwest;strokeColor=inherit;" parent="U5L8bIT946rRlEJdHNtD-78" vertex="1">
          <mxGeometry y="80" width="160" height="8" as="geometry" />
        </mxCell>
        <mxCell id="U5L8bIT946rRlEJdHNtD-81" value="&lt;div&gt;+ gas(double): void&lt;/div&gt;&lt;div&gt;+ brake(double): void&lt;/div&gt;&lt;div&gt;+ turboOn(boolean): void&lt;/div&gt;&lt;div&gt;+ turboOff(boolean): void&lt;/div&gt;&lt;div&gt;+ raiseBed(): void&lt;/div&gt;&lt;div&gt;+ lowerBed(): void&lt;/div&gt;&lt;div&gt;+ startCars(): void&lt;/div&gt;&lt;div&gt;+ stopCars(): void&lt;/div&gt;" style="text;strokeColor=none;fillColor=none;align=left;verticalAlign=top;spacingLeft=4;spacingRight=4;overflow=hidden;rotatable=0;points=[[0,0.5],[1,0.5]];portConstraint=eastwest;whiteSpace=wrap;html=1;" parent="U5L8bIT946rRlEJdHNtD-78" vertex="1">
          <mxGeometry y="88" width="160" height="130" as="geometry" />
        </mxCell>
        <mxCell id="U5L8bIT946rRlEJdHNtD-142" style="edgeStyle=orthogonalEdgeStyle;rounded=0;orthogonalLoop=1;jettySize=auto;html=1;entryX=1;entryY=0.5;entryDx=0;entryDy=0;endArrow=block;endFill=0;exitX=0.5;exitY=1;exitDx=0;exitDy=0;dashed=1;" parent="1" source="U5L8bIT946rRlEJdHNtD-86" target="U5L8bIT946rRlEJdHNtD-134" edge="1">
          <mxGeometry relative="1" as="geometry">
            <mxPoint x="1095" y="300" as="sourcePoint" />
          </mxGeometry>
        </mxCell>
        <mxCell id="U5L8bIT946rRlEJdHNtD-86" value="CarTransport" style="swimlane;fontStyle=1;align=center;verticalAlign=top;childLayout=stackLayout;horizontal=1;startSize=26;horizontalStack=0;resizeParent=1;resizeParentMax=0;resizeLast=0;collapsible=1;marginBottom=0;whiteSpace=wrap;html=1;" parent="1" vertex="1">
          <mxGeometry x="979" y="8" width="190" height="310" as="geometry" />
        </mxCell>
        <mxCell id="U5L8bIT946rRlEJdHNtD-87" value="&lt;div&gt;+ parent: Truck&lt;/div&gt;&lt;div&gt;+ carStack: Stack&amp;lt;Car&amp;gt;&lt;/div&gt;&lt;div&gt;+ carStackSize: int&lt;/div&gt;&lt;div&gt;+ maxCarSize: int&lt;/div&gt;" style="text;strokeColor=none;fillColor=none;align=left;verticalAlign=top;spacingLeft=4;spacingRight=4;overflow=hidden;rotatable=0;points=[[0,0.5],[1,0.5]];portConstraint=eastwest;whiteSpace=wrap;html=1;" parent="U5L8bIT946rRlEJdHNtD-86" vertex="1">
          <mxGeometry y="26" width="190" height="64" as="geometry" />
        </mxCell>
        <mxCell id="U5L8bIT946rRlEJdHNtD-88" value="" style="line;strokeWidth=1;fillColor=none;align=left;verticalAlign=middle;spacingTop=-1;spacingLeft=3;spacingRight=3;rotatable=0;labelPosition=right;points=[];portConstraint=eastwest;strokeColor=inherit;" parent="U5L8bIT946rRlEJdHNtD-86" vertex="1">
          <mxGeometry y="90" width="190" height="8" as="geometry" />
        </mxCell>
        <mxCell id="U5L8bIT946rRlEJdHNtD-89" value="&lt;div&gt;+ getMaxCarSize(): int&lt;/div&gt;&lt;div&gt;&lt;div&gt;&lt;div&gt;+ openRamp(): void&lt;/div&gt;&lt;div&gt;+ closeRamp(): void&lt;/div&gt;&lt;div&gt;+ isRampOpen(): boolean&lt;/div&gt;&lt;div&gt;+ loadCar(Car): Boolean&lt;/div&gt;&lt;div&gt;+ unloadCar(): Car&lt;/div&gt;&lt;/div&gt;&lt;/div&gt;" style="text;strokeColor=none;fillColor=none;align=left;verticalAlign=top;spacingLeft=4;spacingRight=4;overflow=hidden;rotatable=0;points=[[0,0.5],[1,0.5]];portConstraint=eastwest;whiteSpace=wrap;html=1;" parent="U5L8bIT946rRlEJdHNtD-86" vertex="1">
          <mxGeometry y="98" width="190" height="212" as="geometry" />
        </mxCell>
        <mxCell id="yrOVRIiMDCrw_vPQ0-g4-14" style="edgeStyle=orthogonalEdgeStyle;rounded=0;orthogonalLoop=1;jettySize=auto;html=1;exitX=0.5;exitY=1;exitDx=0;exitDy=0;entryX=0.5;entryY=0;entryDx=0;entryDy=0;endArrow=open;endFill=0;" edge="1" parent="1" source="U5L8bIT946rRlEJdHNtD-90" target="U5L8bIT946rRlEJdHNtD-98">
          <mxGeometry relative="1" as="geometry" />
        </mxCell>
        <mxCell id="U5L8bIT946rRlEJdHNtD-90" value="CarView" style="swimlane;fontStyle=1;align=center;verticalAlign=top;childLayout=stackLayout;horizontal=1;startSize=26;horizontalStack=0;resizeParent=1;resizeParentMax=0;resizeLast=0;collapsible=1;marginBottom=0;whiteSpace=wrap;html=1;" parent="1" vertex="1">
          <mxGeometry x="-70" y="253" width="180" height="160" as="geometry" />
        </mxCell>
        <mxCell id="U5L8bIT946rRlEJdHNtD-91" value="&lt;div&gt;+ carC: CarController&lt;/div&gt;&lt;div&gt;+ drawPanel: DrawPanel&lt;/div&gt;&lt;div&gt;+ controlPanel: JPanel&lt;/div&gt;&lt;div&gt;&lt;div&gt;+ gasPanel: JPanel&lt;/div&gt;&lt;div&gt;&lt;div&gt;+ gasSpinner: JSpinner&lt;/div&gt;&lt;br&gt;&lt;/div&gt;&lt;/div&gt;" style="text;strokeColor=none;fillColor=none;align=left;verticalAlign=top;spacingLeft=4;spacingRight=4;overflow=hidden;rotatable=0;points=[[0,0.5],[1,0.5]];portConstraint=eastwest;whiteSpace=wrap;html=1;" parent="U5L8bIT946rRlEJdHNtD-90" vertex="1">
          <mxGeometry y="26" width="180" height="84" as="geometry" />
        </mxCell>
        <mxCell id="U5L8bIT946rRlEJdHNtD-92" value="" style="line;strokeWidth=1;fillColor=none;align=left;verticalAlign=middle;spacingTop=-1;spacingLeft=3;spacingRight=3;rotatable=0;labelPosition=right;points=[];portConstraint=eastwest;strokeColor=inherit;" parent="U5L8bIT946rRlEJdHNtD-90" vertex="1">
          <mxGeometry y="110" width="180" height="8" as="geometry" />
        </mxCell>
        <mxCell id="U5L8bIT946rRlEJdHNtD-93" value="&lt;div&gt;+ initComponents(String): void&lt;/div&gt;" style="text;strokeColor=none;fillColor=none;align=left;verticalAlign=top;spacingLeft=4;spacingRight=4;overflow=hidden;rotatable=0;points=[[0,0.5],[1,0.5]];portConstraint=eastwest;whiteSpace=wrap;html=1;" parent="U5L8bIT946rRlEJdHNtD-90" vertex="1">
          <mxGeometry y="118" width="180" height="42" as="geometry" />
        </mxCell>
        <mxCell id="U5L8bIT946rRlEJdHNtD-94" value="CarWorkshop" style="swimlane;fontStyle=1;align=center;verticalAlign=top;childLayout=stackLayout;horizontal=1;startSize=26;horizontalStack=0;resizeParent=1;resizeParentMax=0;resizeLast=0;collapsible=1;marginBottom=0;whiteSpace=wrap;html=1;" parent="1" vertex="1">
          <mxGeometry x="240" y="-130" width="160" height="100" as="geometry" />
        </mxCell>
        <mxCell id="U5L8bIT946rRlEJdHNtD-95" value="&lt;div&gt;+ cars: ArrayList&amp;lt;T&amp;gt;&lt;/div&gt;" style="text;strokeColor=none;fillColor=none;align=left;verticalAlign=top;spacingLeft=4;spacingRight=4;overflow=hidden;rotatable=0;points=[[0,0.5],[1,0.5]];portConstraint=eastwest;whiteSpace=wrap;html=1;" parent="U5L8bIT946rRlEJdHNtD-94" vertex="1">
          <mxGeometry y="26" width="160" height="24" as="geometry" />
        </mxCell>
        <mxCell id="U5L8bIT946rRlEJdHNtD-96" value="" style="line;strokeWidth=1;fillColor=none;align=left;verticalAlign=middle;spacingTop=-1;spacingLeft=3;spacingRight=3;rotatable=0;labelPosition=right;points=[];portConstraint=eastwest;strokeColor=inherit;" parent="U5L8bIT946rRlEJdHNtD-94" vertex="1">
          <mxGeometry y="50" width="160" height="8" as="geometry" />
        </mxCell>
        <mxCell id="U5L8bIT946rRlEJdHNtD-97" value="&lt;div&gt;+ addCar(T): void&lt;/div&gt;&lt;div&gt;+ removeCar(T): T&lt;/div&gt;" style="text;strokeColor=none;fillColor=none;align=left;verticalAlign=top;spacingLeft=4;spacingRight=4;overflow=hidden;rotatable=0;points=[[0,0.5],[1,0.5]];portConstraint=eastwest;whiteSpace=wrap;html=1;" parent="U5L8bIT946rRlEJdHNtD-94" vertex="1">
          <mxGeometry y="58" width="160" height="42" as="geometry" />
        </mxCell>
        <mxCell id="U5L8bIT946rRlEJdHNtD-98" value="DrawPanel" style="swimlane;fontStyle=1;align=center;verticalAlign=top;childLayout=stackLayout;horizontal=1;startSize=26;horizontalStack=0;resizeParent=1;resizeParentMax=0;resizeLast=0;collapsible=1;marginBottom=0;whiteSpace=wrap;html=1;" parent="1" vertex="1">
          <mxGeometry x="-85" y="460" width="210" height="130" as="geometry" />
        </mxCell>
        <mxCell id="U5L8bIT946rRlEJdHNtD-99" value="&lt;div&gt;+ carImages: BufferedImage[]&lt;/div&gt;&lt;div&gt;+ carPoints: Points[]&lt;/div&gt;" style="text;strokeColor=none;fillColor=none;align=left;verticalAlign=top;spacingLeft=4;spacingRight=4;overflow=hidden;rotatable=0;points=[[0,0.5],[1,0.5]];portConstraint=eastwest;whiteSpace=wrap;html=1;" parent="U5L8bIT946rRlEJdHNtD-98" vertex="1">
          <mxGeometry y="26" width="210" height="44" as="geometry" />
        </mxCell>
        <mxCell id="U5L8bIT946rRlEJdHNtD-100" value="" style="line;strokeWidth=1;fillColor=none;align=left;verticalAlign=middle;spacingTop=-1;spacingLeft=3;spacingRight=3;rotatable=0;labelPosition=right;points=[];portConstraint=eastwest;strokeColor=inherit;" parent="U5L8bIT946rRlEJdHNtD-98" vertex="1">
          <mxGeometry y="70" width="210" height="8" as="geometry" />
        </mxCell>
        <mxCell id="U5L8bIT946rRlEJdHNtD-101" value="&lt;div&gt;+ moveit(int, int, int): void&lt;/div&gt;&lt;div&gt;+ drawPanel(int. int): void&lt;/div&gt;&lt;div&gt;+ paintComponent(Graphics): void&lt;/div&gt;" style="text;strokeColor=none;fillColor=none;align=left;verticalAlign=top;spacingLeft=4;spacingRight=4;overflow=hidden;rotatable=0;points=[[0,0.5],[1,0.5]];portConstraint=eastwest;whiteSpace=wrap;html=1;" parent="U5L8bIT946rRlEJdHNtD-98" vertex="1">
          <mxGeometry y="78" width="210" height="52" as="geometry" />
        </mxCell>
        <mxCell id="U5L8bIT946rRlEJdHNtD-130" style="edgeStyle=orthogonalEdgeStyle;rounded=0;orthogonalLoop=1;jettySize=auto;html=1;exitX=0.5;exitY=0;exitDx=0;exitDy=0;entryX=0.5;entryY=1;entryDx=0;entryDy=0;endArrow=block;endFill=0;dashed=1;" parent="1" source="yrOVRIiMDCrw_vPQ0-g4-20" target="U5L8bIT946rRlEJdHNtD-115" edge="1">
          <mxGeometry relative="1" as="geometry">
            <mxPoint x="480" y="450" as="sourcePoint" />
          </mxGeometry>
        </mxCell>
        <mxCell id="U5L8bIT946rRlEJdHNtD-140" style="edgeStyle=orthogonalEdgeStyle;rounded=0;orthogonalLoop=1;jettySize=auto;html=1;exitX=0.5;exitY=0;exitDx=0;exitDy=0;entryX=0.5;entryY=1;entryDx=0;entryDy=0;endArrow=block;endFill=0;" parent="1" source="U5L8bIT946rRlEJdHNtD-107" target="U5L8bIT946rRlEJdHNtD-134" edge="1">
          <mxGeometry relative="1" as="geometry" />
        </mxCell>
        <mxCell id="U5L8bIT946rRlEJdHNtD-107" value="Scania" style="swimlane;fontStyle=1;align=center;verticalAlign=top;childLayout=stackLayout;horizontal=1;startSize=26;horizontalStack=0;resizeParent=1;resizeParentMax=0;resizeLast=0;collapsible=1;marginBottom=0;whiteSpace=wrap;html=1;" parent="1" vertex="1" collapsed="1">
          <mxGeometry x="855" y="500" width="80" height="30" as="geometry">
            <mxRectangle x="800" y="480" width="160" height="86" as="alternateBounds" />
          </mxGeometry>
        </mxCell>
        <mxCell id="U5L8bIT946rRlEJdHNtD-108" value="+ field: type" style="text;strokeColor=none;fillColor=none;align=left;verticalAlign=top;spacingLeft=4;spacingRight=4;overflow=hidden;rotatable=0;points=[[0,0.5],[1,0.5]];portConstraint=eastwest;whiteSpace=wrap;html=1;" parent="U5L8bIT946rRlEJdHNtD-107" vertex="1">
          <mxGeometry y="26" width="160" height="26" as="geometry" />
        </mxCell>
        <mxCell id="U5L8bIT946rRlEJdHNtD-109" value="" style="line;strokeWidth=1;fillColor=none;align=left;verticalAlign=middle;spacingTop=-1;spacingLeft=3;spacingRight=3;rotatable=0;labelPosition=right;points=[];portConstraint=eastwest;strokeColor=inherit;" parent="U5L8bIT946rRlEJdHNtD-107" vertex="1">
          <mxGeometry y="52" width="160" height="8" as="geometry" />
        </mxCell>
        <mxCell id="U5L8bIT946rRlEJdHNtD-110" value="+ method(type): type" style="text;strokeColor=none;fillColor=none;align=left;verticalAlign=top;spacingLeft=4;spacingRight=4;overflow=hidden;rotatable=0;points=[[0,0.5],[1,0.5]];portConstraint=eastwest;whiteSpace=wrap;html=1;" parent="U5L8bIT946rRlEJdHNtD-107" vertex="1">
          <mxGeometry y="60" width="160" height="26" as="geometry" />
        </mxCell>
        <mxCell id="U5L8bIT946rRlEJdHNtD-128" style="edgeStyle=orthogonalEdgeStyle;rounded=0;orthogonalLoop=1;jettySize=auto;html=1;exitX=0.5;exitY=0;exitDx=0;exitDy=0;entryX=0.75;entryY=1;entryDx=0;entryDy=0;endArrow=block;endFill=0;" parent="1" source="U5L8bIT946rRlEJdHNtD-111" target="U5L8bIT946rRlEJdHNtD-73" edge="1">
          <mxGeometry relative="1" as="geometry" />
        </mxCell>
        <mxCell id="U5L8bIT946rRlEJdHNtD-111" value="Volvo240" style="swimlane;fontStyle=1;align=center;verticalAlign=top;childLayout=stackLayout;horizontal=1;startSize=26;horizontalStack=0;resizeParent=1;resizeParentMax=0;resizeLast=0;collapsible=1;marginBottom=0;whiteSpace=wrap;html=1;" parent="1" vertex="1">
          <mxGeometry x="600" y="260" width="160" height="86" as="geometry" />
        </mxCell>
        <mxCell id="U5L8bIT946rRlEJdHNtD-112" value="+ trimFactor: double" style="text;strokeColor=none;fillColor=none;align=left;verticalAlign=top;spacingLeft=4;spacingRight=4;overflow=hidden;rotatable=0;points=[[0,0.5],[1,0.5]];portConstraint=eastwest;whiteSpace=wrap;html=1;" parent="U5L8bIT946rRlEJdHNtD-111" vertex="1">
          <mxGeometry y="26" width="160" height="26" as="geometry" />
        </mxCell>
        <mxCell id="U5L8bIT946rRlEJdHNtD-113" value="" style="line;strokeWidth=1;fillColor=none;align=left;verticalAlign=middle;spacingTop=-1;spacingLeft=3;spacingRight=3;rotatable=0;labelPosition=right;points=[];portConstraint=eastwest;strokeColor=inherit;" parent="U5L8bIT946rRlEJdHNtD-111" vertex="1">
          <mxGeometry y="52" width="160" height="8" as="geometry" />
        </mxCell>
        <mxCell id="U5L8bIT946rRlEJdHNtD-114" value="+ speedFactor(): double" style="text;strokeColor=none;fillColor=none;align=left;verticalAlign=top;spacingLeft=4;spacingRight=4;overflow=hidden;rotatable=0;points=[[0,0.5],[1,0.5]];portConstraint=eastwest;whiteSpace=wrap;html=1;" parent="U5L8bIT946rRlEJdHNtD-111" vertex="1">
          <mxGeometry y="60" width="160" height="26" as="geometry" />
        </mxCell>
        <mxCell id="U5L8bIT946rRlEJdHNtD-115" value="&lt;i&gt;&lt;span style=&quot;font-weight: normal;&quot;&gt;&amp;lt;&amp;lt;Interface&amp;gt;&amp;gt;&lt;/span&gt;&lt;/i&gt;&lt;div&gt;TurboCar&lt;/div&gt;" style="swimlane;fontStyle=1;align=center;verticalAlign=top;childLayout=stackLayout;horizontal=1;startSize=40;horizontalStack=0;resizeParent=1;resizeParentMax=0;resizeLast=0;collapsible=1;marginBottom=0;whiteSpace=wrap;html=1;" parent="1" vertex="1">
          <mxGeometry x="400" y="260" width="160" height="108" as="geometry" />
        </mxCell>
        <mxCell id="U5L8bIT946rRlEJdHNtD-117" value="" style="line;strokeWidth=1;fillColor=none;align=left;verticalAlign=middle;spacingTop=-1;spacingLeft=3;spacingRight=3;rotatable=0;labelPosition=right;points=[];portConstraint=eastwest;strokeColor=inherit;" parent="U5L8bIT946rRlEJdHNtD-115" vertex="1">
          <mxGeometry y="40" width="160" height="8" as="geometry" />
        </mxCell>
        <mxCell id="U5L8bIT946rRlEJdHNtD-118" value="&lt;div&gt;+ setTurbonOn(): void&lt;/div&gt;&lt;div&gt;+ setTurbonOff(): void&lt;/div&gt;&lt;div&gt;&lt;br&gt;&lt;/div&gt;" style="text;strokeColor=none;fillColor=none;align=left;verticalAlign=top;spacingLeft=4;spacingRight=4;overflow=hidden;rotatable=0;points=[[0,0.5],[1,0.5]];portConstraint=eastwest;whiteSpace=wrap;html=1;" parent="U5L8bIT946rRlEJdHNtD-115" vertex="1">
          <mxGeometry y="48" width="160" height="60" as="geometry" />
        </mxCell>
        <mxCell id="U5L8bIT946rRlEJdHNtD-134" value="&lt;i&gt;&lt;span style=&quot;font-weight: normal;&quot;&gt;&amp;lt;&amp;lt;Interface&amp;gt;&amp;gt;&lt;/span&gt;&lt;/i&gt;&lt;div&gt;Truck&lt;/div&gt;" style="swimlane;fontStyle=1;align=center;verticalAlign=top;childLayout=stackLayout;horizontal=1;startSize=40;horizontalStack=0;resizeParent=1;resizeParentMax=0;resizeLast=0;collapsible=1;marginBottom=0;whiteSpace=wrap;html=1;" parent="1" vertex="1">
          <mxGeometry x="900" y="368" width="190" height="88" as="geometry" />
        </mxCell>
        <mxCell id="U5L8bIT946rRlEJdHNtD-136" value="" style="line;strokeWidth=1;fillColor=none;align=left;verticalAlign=middle;spacingTop=-1;spacingLeft=3;spacingRight=3;rotatable=0;labelPosition=right;points=[];portConstraint=eastwest;strokeColor=inherit;" parent="U5L8bIT946rRlEJdHNtD-134" vertex="1">
          <mxGeometry y="40" width="190" height="8" as="geometry" />
        </mxCell>
        <mxCell id="U5L8bIT946rRlEJdHNtD-137" value="&lt;div&gt;+ raiseCargoBed(double): void&lt;br&gt;&lt;/div&gt;&lt;div&gt;+ lowerCargoBed(double): void&lt;/div&gt;" style="text;strokeColor=none;fillColor=none;align=left;verticalAlign=top;spacingLeft=4;spacingRight=4;overflow=hidden;rotatable=0;points=[[0,0.5],[1,0.5]];portConstraint=eastwest;whiteSpace=wrap;html=1;" parent="U5L8bIT946rRlEJdHNtD-134" vertex="1">
          <mxGeometry y="48" width="190" height="40" as="geometry" />
        </mxCell>
        <mxCell id="U5L8bIT946rRlEJdHNtD-166" value="&lt;p style=&quot;margin:0px;margin-top:4px;text-align:center;&quot;&gt;&lt;i&gt;&amp;lt;&amp;lt;Interface&amp;gt;&amp;gt;&lt;/i&gt;&lt;br&gt;&lt;b&gt;Movable&lt;/b&gt;&lt;/p&gt;&lt;hr size=&quot;1&quot; style=&quot;border-style:solid;&quot;&gt;&lt;p style=&quot;margin:0px;margin-left:4px;&quot;&gt;+ move(): void&lt;br&gt;+ turnLeft(): void&lt;br&gt;+ turnRight(): void&lt;/p&gt;" style="verticalAlign=top;align=left;overflow=fill;html=1;whiteSpace=wrap;" parent="1" vertex="1">
          <mxGeometry x="475" y="-190" width="190" height="90" as="geometry" />
        </mxCell>
        <mxCell id="yrOVRIiMDCrw_vPQ0-g4-8" style="edgeStyle=orthogonalEdgeStyle;rounded=0;orthogonalLoop=1;jettySize=auto;html=1;exitX=0.5;exitY=1;exitDx=0;exitDy=0;entryX=0;entryY=0.5;entryDx=0;entryDy=0;endArrow=open;endFill=0;" edge="1" parent="1" source="VItDokl8U09HRBnzPB0M-3" target="AOWAe443CHjPLsmgRQvE-4">
          <mxGeometry relative="1" as="geometry" />
        </mxCell>
        <mxCell id="yrOVRIiMDCrw_vPQ0-g4-9" style="edgeStyle=orthogonalEdgeStyle;rounded=0;orthogonalLoop=1;jettySize=auto;html=1;exitX=1;exitY=0.5;exitDx=0;exitDy=0;entryX=0;entryY=0.5;entryDx=0;entryDy=0;endArrow=open;endFill=0;" edge="1" parent="1" source="VItDokl8U09HRBnzPB0M-3" target="U5L8bIT946rRlEJdHNtD-79">
          <mxGeometry relative="1" as="geometry" />
        </mxCell>
        <mxCell id="yrOVRIiMDCrw_vPQ0-g4-13" style="edgeStyle=orthogonalEdgeStyle;rounded=0;orthogonalLoop=1;jettySize=auto;html=1;exitX=0.5;exitY=0;exitDx=0;exitDy=0;entryX=0;entryY=0.25;entryDx=0;entryDy=0;endArrow=open;endFill=0;" edge="1" parent="1" source="VItDokl8U09HRBnzPB0M-3" target="U5L8bIT946rRlEJdHNtD-94">
          <mxGeometry relative="1" as="geometry">
            <Array as="points">
              <mxPoint x="-245" y="-105" />
            </Array>
          </mxGeometry>
        </mxCell>
        <mxCell id="yrOVRIiMDCrw_vPQ0-g4-17" style="edgeStyle=orthogonalEdgeStyle;rounded=0;orthogonalLoop=1;jettySize=auto;html=1;exitX=0.75;exitY=1;exitDx=0;exitDy=0;entryX=0.356;entryY=1;entryDx=0;entryDy=0;endArrow=open;endFill=0;entryPerimeter=0;" edge="1" parent="1" source="VItDokl8U09HRBnzPB0M-3" target="U5L8bIT946rRlEJdHNtD-114">
          <mxGeometry relative="1" as="geometry">
            <mxPoint x="657.5" y="480" as="targetPoint" />
            <Array as="points">
              <mxPoint x="-187" y="650" />
              <mxPoint x="658" y="650" />
            </Array>
          </mxGeometry>
        </mxCell>
        <mxCell id="VItDokl8U09HRBnzPB0M-3" value="Main" style="swimlane;fontStyle=1;align=center;verticalAlign=top;childLayout=stackLayout;horizontal=1;startSize=26;horizontalStack=0;resizeParent=1;resizeParentMax=0;resizeLast=0;collapsible=1;marginBottom=0;whiteSpace=wrap;html=1;" parent="1" vertex="1">
          <mxGeometry x="-360" y="-90" width="230" height="100" as="geometry" />
        </mxCell>
        <mxCell id="VItDokl8U09HRBnzPB0M-4" value="&lt;div&gt;+ carController: CarController&lt;/div&gt;&lt;div&gt;+ carFactory: CarFactory&lt;/div&gt;" style="text;strokeColor=none;fillColor=none;align=left;verticalAlign=top;spacingLeft=4;spacingRight=4;overflow=hidden;rotatable=0;points=[[0,0.5],[1,0.5]];portConstraint=eastwest;whiteSpace=wrap;html=1;" parent="VItDokl8U09HRBnzPB0M-3" vertex="1">
          <mxGeometry y="26" width="230" height="44" as="geometry" />
        </mxCell>
        <mxCell id="VItDokl8U09HRBnzPB0M-5" value="" style="line;strokeWidth=1;fillColor=none;align=left;verticalAlign=middle;spacingTop=-1;spacingLeft=3;spacingRight=3;rotatable=0;labelPosition=right;points=[];portConstraint=eastwest;strokeColor=inherit;" parent="VItDokl8U09HRBnzPB0M-3" vertex="1">
          <mxGeometry y="70" width="230" height="8" as="geometry" />
        </mxCell>
        <mxCell id="VItDokl8U09HRBnzPB0M-6" value="&lt;div&gt;+ main: void&lt;/div&gt;" style="text;strokeColor=none;fillColor=none;align=left;verticalAlign=top;spacingLeft=4;spacingRight=4;overflow=hidden;rotatable=0;points=[[0,0.5],[1,0.5]];portConstraint=eastwest;whiteSpace=wrap;html=1;" parent="VItDokl8U09HRBnzPB0M-3" vertex="1">
          <mxGeometry y="78" width="230" height="22" as="geometry" />
        </mxCell>
        <mxCell id="VItDokl8U09HRBnzPB0M-12" style="edgeStyle=orthogonalEdgeStyle;rounded=0;orthogonalLoop=1;jettySize=auto;html=1;entryX=1;entryY=0.5;entryDx=0;entryDy=0;endArrow=open;endFill=0;" parent="1" source="U5L8bIT946rRlEJdHNtD-86" target="U5L8bIT946rRlEJdHNtD-76" edge="1">
          <mxGeometry relative="1" as="geometry" />
        </mxCell>
        <mxCell id="AOWAe443CHjPLsmgRQvE-9" style="edgeStyle=orthogonalEdgeStyle;rounded=0;orthogonalLoop=1;jettySize=auto;html=1;dashed=1;endArrow=open;endFill=0;entryX=0.5;entryY=1;entryDx=0;entryDy=0;" parent="1" source="AOWAe443CHjPLsmgRQvE-1" target="U5L8bIT946rRlEJdHNtD-111" edge="1">
          <mxGeometry relative="1" as="geometry">
            <mxPoint x="690" y="370" as="targetPoint" />
            <Array as="points">
              <mxPoint x="370" y="550" />
              <mxPoint x="680" y="550" />
            </Array>
          </mxGeometry>
        </mxCell>
        <mxCell id="AOWAe443CHjPLsmgRQvE-10" style="edgeStyle=orthogonalEdgeStyle;rounded=0;orthogonalLoop=1;jettySize=auto;html=1;entryX=0.5;entryY=1;entryDx=0;entryDy=0;dashed=1;endArrow=open;endFill=0;" parent="1" source="AOWAe443CHjPLsmgRQvE-1" target="U5L8bIT946rRlEJdHNtD-107" edge="1">
          <mxGeometry relative="1" as="geometry">
            <Array as="points">
              <mxPoint x="895" y="550" />
            </Array>
          </mxGeometry>
        </mxCell>
        <mxCell id="yrOVRIiMDCrw_vPQ0-g4-19" style="edgeStyle=orthogonalEdgeStyle;rounded=0;orthogonalLoop=1;jettySize=auto;html=1;exitX=0.5;exitY=0;exitDx=0;exitDy=0;entryX=0.75;entryY=1;entryDx=0;entryDy=0;endArrow=open;endFill=0;dashed=1;" edge="1" parent="1" source="AOWAe443CHjPLsmgRQvE-1" target="U5L8bIT946rRlEJdHNtD-86">
          <mxGeometry relative="1" as="geometry">
            <Array as="points">
              <mxPoint x="370" y="550" />
              <mxPoint x="1122" y="550" />
            </Array>
          </mxGeometry>
        </mxCell>
        <mxCell id="yrOVRIiMDCrw_vPQ0-g4-23" style="edgeStyle=orthogonalEdgeStyle;rounded=0;orthogonalLoop=1;jettySize=auto;html=1;exitX=0.5;exitY=0;exitDx=0;exitDy=0;endArrow=open;endFill=0;dashed=1;" edge="1" parent="1" source="AOWAe443CHjPLsmgRQvE-1" target="yrOVRIiMDCrw_vPQ0-g4-22">
          <mxGeometry relative="1" as="geometry" />
        </mxCell>
        <mxCell id="AOWAe443CHjPLsmgRQvE-1" value="CarFactory" style="swimlane;fontStyle=1;align=center;verticalAlign=top;childLayout=stackLayout;horizontal=1;startSize=26;horizontalStack=0;resizeParent=1;resizeParentMax=0;resizeLast=0;collapsible=1;marginBottom=0;whiteSpace=wrap;html=1;" parent="1" vertex="1">
          <mxGeometry x="290" y="570" width="160" height="60" as="geometry" />
        </mxCell>
        <mxCell id="AOWAe443CHjPLsmgRQvE-3" value="" style="line;strokeWidth=1;fillColor=none;align=left;verticalAlign=middle;spacingTop=-1;spacingLeft=3;spacingRight=3;rotatable=0;labelPosition=right;points=[];portConstraint=eastwest;strokeColor=inherit;" parent="AOWAe443CHjPLsmgRQvE-1" vertex="1">
          <mxGeometry y="26" width="160" height="8" as="geometry" />
        </mxCell>
        <mxCell id="AOWAe443CHjPLsmgRQvE-4" value="+ createCar(String): Car" style="text;strokeColor=none;fillColor=none;align=left;verticalAlign=top;spacingLeft=4;spacingRight=4;overflow=hidden;rotatable=0;points=[[0,0.5],[1,0.5]];portConstraint=eastwest;whiteSpace=wrap;html=1;" parent="AOWAe443CHjPLsmgRQvE-1" vertex="1">
          <mxGeometry y="34" width="160" height="26" as="geometry" />
        </mxCell>
        <mxCell id="AOWAe443CHjPLsmgRQvE-20" style="edgeStyle=orthogonalEdgeStyle;rounded=0;orthogonalLoop=1;jettySize=auto;html=1;endArrow=open;endFill=0;dashed=1;entryX=0;entryY=0.05;entryDx=0;entryDy=0;entryPerimeter=0;" parent="1" source="U5L8bIT946rRlEJdHNtD-81" target="U5L8bIT946rRlEJdHNtD-118" edge="1">
          <mxGeometry relative="1" as="geometry">
            <mxPoint x="400" y="313" as="targetPoint" />
          </mxGeometry>
        </mxCell>
        <mxCell id="AOWAe443CHjPLsmgRQvE-21" style="edgeStyle=orthogonalEdgeStyle;rounded=0;orthogonalLoop=1;jettySize=auto;html=1;endArrow=open;endFill=0;entryX=0;entryY=0.5;entryDx=0;entryDy=0;" parent="1" source="U5L8bIT946rRlEJdHNtD-78" target="U5L8bIT946rRlEJdHNtD-95" edge="1">
          <mxGeometry relative="1" as="geometry">
            <mxPoint x="220" y="-51" as="targetPoint" />
          </mxGeometry>
        </mxCell>
        <mxCell id="yrOVRIiMDCrw_vPQ0-g4-6" style="edgeStyle=orthogonalEdgeStyle;rounded=0;orthogonalLoop=1;jettySize=auto;html=1;exitX=1;exitY=0.75;exitDx=0;exitDy=0;entryX=0;entryY=0.5;entryDx=0;entryDy=0;endArrow=open;endFill=0;" edge="1" parent="1" source="U5L8bIT946rRlEJdHNtD-98" target="U5L8bIT946rRlEJdHNtD-76">
          <mxGeometry relative="1" as="geometry">
            <Array as="points">
              <mxPoint x="300" y="558" />
              <mxPoint x="300" y="163" />
            </Array>
          </mxGeometry>
        </mxCell>
        <mxCell id="yrOVRIiMDCrw_vPQ0-g4-7" style="edgeStyle=orthogonalEdgeStyle;rounded=0;orthogonalLoop=1;jettySize=auto;html=1;exitX=1;exitY=0.5;exitDx=0;exitDy=0;entryX=0.25;entryY=1;entryDx=0;entryDy=0;endArrow=open;endFill=0;" edge="1" parent="1" source="U5L8bIT946rRlEJdHNtD-99" target="U5L8bIT946rRlEJdHNtD-94">
          <mxGeometry relative="1" as="geometry" />
        </mxCell>
        <mxCell id="yrOVRIiMDCrw_vPQ0-g4-12" style="edgeStyle=orthogonalEdgeStyle;rounded=0;orthogonalLoop=1;jettySize=auto;html=1;exitX=0.5;exitY=1;exitDx=0;exitDy=0;entryX=0;entryY=0.015;entryDx=0;entryDy=0;entryPerimeter=0;endArrow=open;endFill=0;" edge="1" parent="1" source="U5L8bIT946rRlEJdHNtD-94" target="U5L8bIT946rRlEJdHNtD-76">
          <mxGeometry relative="1" as="geometry" />
        </mxCell>
        <mxCell id="yrOVRIiMDCrw_vPQ0-g4-18" style="edgeStyle=orthogonalEdgeStyle;rounded=0;orthogonalLoop=1;jettySize=auto;html=1;exitX=0.994;exitY=0.754;exitDx=0;exitDy=0;entryX=0.25;entryY=0;entryDx=0;entryDy=0;endArrow=open;endFill=0;exitPerimeter=0;" edge="1" parent="1" source="U5L8bIT946rRlEJdHNtD-81" target="AOWAe443CHjPLsmgRQvE-1">
          <mxGeometry relative="1" as="geometry">
            <Array as="points">
              <mxPoint x="150" y="96" />
              <mxPoint x="150" y="140" />
              <mxPoint x="330" y="140" />
            </Array>
          </mxGeometry>
        </mxCell>
        <mxCell id="yrOVRIiMDCrw_vPQ0-g4-20" value="Saab95" style="swimlane;fontStyle=1;align=center;verticalAlign=top;childLayout=stackLayout;horizontal=1;startSize=28;horizontalStack=0;resizeParent=1;resizeParentMax=0;resizeLast=0;collapsible=1;marginBottom=0;whiteSpace=wrap;html=1;" vertex="1" parent="1">
          <mxGeometry x="400" y="413" width="160" height="68" as="geometry" />
        </mxCell>
        <mxCell id="yrOVRIiMDCrw_vPQ0-g4-22" value="+ speedFactor(): void" style="text;strokeColor=none;fillColor=none;align=left;verticalAlign=top;spacingLeft=4;spacingRight=4;overflow=hidden;rotatable=0;points=[[0,0.5],[1,0.5]];portConstraint=eastwest;whiteSpace=wrap;html=1;" vertex="1" parent="yrOVRIiMDCrw_vPQ0-g4-20">
          <mxGeometry y="28" width="160" height="32" as="geometry" />
        </mxCell>
        <mxCell id="yrOVRIiMDCrw_vPQ0-g4-21" value="" style="line;strokeWidth=1;fillColor=none;align=left;verticalAlign=middle;spacingTop=-1;spacingLeft=3;spacingRight=3;rotatable=0;labelPosition=right;points=[];portConstraint=eastwest;strokeColor=inherit;" vertex="1" parent="yrOVRIiMDCrw_vPQ0-g4-20">
          <mxGeometry y="60" width="160" height="8" as="geometry" />
        </mxCell>
        <mxCell id="yrOVRIiMDCrw_vPQ0-g4-24" style="edgeStyle=orthogonalEdgeStyle;rounded=0;orthogonalLoop=1;jettySize=auto;html=1;exitX=1;exitY=0.5;exitDx=0;exitDy=0;entryX=0.527;entryY=1.008;entryDx=0;entryDy=0;entryPerimeter=0;endArrow=block;endFill=0;" edge="1" parent="1" source="yrOVRIiMDCrw_vPQ0-g4-22" target="U5L8bIT946rRlEJdHNtD-76">
          <mxGeometry relative="1" as="geometry">
            <Array as="points">
              <mxPoint x="580" y="457" />
              <mxPoint x="580" y="335" />
              <mxPoint x="577" y="335" />
            </Array>
          </mxGeometry>
        </mxCell>
        <mxCell id="yrOVRIiMDCrw_vPQ0-g4-26" style="edgeStyle=orthogonalEdgeStyle;rounded=0;orthogonalLoop=1;jettySize=auto;html=1;exitX=0.25;exitY=0;exitDx=0;exitDy=0;entryX=1.012;entryY=0.723;entryDx=0;entryDy=0;entryPerimeter=0;endArrow=block;endFill=0;" edge="1" parent="1" source="U5L8bIT946rRlEJdHNtD-107" target="U5L8bIT946rRlEJdHNtD-76">
          <mxGeometry relative="1" as="geometry" />
        </mxCell>
        <mxCell id="yrOVRIiMDCrw_vPQ0-g4-27" value="&lt;p style=&quot;margin:0px;margin-top:4px;text-align:center;&quot;&gt;&lt;i&gt;&amp;lt;&amp;lt;Interface&amp;gt;&amp;gt;&lt;/i&gt;&lt;/p&gt;&lt;p style=&quot;margin:0px;margin-top:4px;text-align:center;&quot;&gt;&lt;b&gt;ControllerInputs&lt;/b&gt;&lt;/p&gt;&lt;hr size=&quot;1&quot; style=&quot;border-style:solid;&quot;&gt;&lt;p style=&quot;margin:0px;margin-left:4px;&quot;&gt;+ gas(int amount): void&lt;/p&gt;&lt;p style=&quot;margin:0px;margin-left:4px;&quot;&gt;+ brake(int amount): void &amp;nbsp;&lt;br&gt;+ turboOn(): void &amp;nbsp;&lt;br&gt;+ turboOff(): void &amp;nbsp;&lt;br&gt;+ raiseBed(): void &amp;nbsp;&lt;br&gt;+ lowerBed(): void &amp;nbsp;&lt;br&gt;+ startCars(): void &amp;nbsp;&lt;br&gt;+ stopCars(): void &amp;nbsp;&lt;br&gt;+ addCar(): void &amp;nbsp;&lt;br&gt;+ removeCar(): void &amp;nbsp;&lt;br&gt;+ getFrameWidth(): int &amp;nbsp;&lt;br&gt;+ getFrameHeight(): int &amp;nbsp;&lt;br&gt;&lt;br&gt;&lt;/p&gt;" style="verticalAlign=top;align=left;overflow=fill;html=1;whiteSpace=wrap;" vertex="1" parent="1">
          <mxGeometry x="-460" y="110" width="190" height="230" as="geometry" />
        </mxCell>
        <mxCell id="yrOVRIiMDCrw_vPQ0-g4-28" style="edgeStyle=orthogonalEdgeStyle;rounded=0;orthogonalLoop=1;jettySize=auto;html=1;exitX=0;exitY=0.5;exitDx=0;exitDy=0;entryX=1;entryY=0.75;entryDx=0;entryDy=0;endArrow=open;endFill=0;dashed=1;" edge="1" parent="1" source="U5L8bIT946rRlEJdHNtD-91" target="yrOVRIiMDCrw_vPQ0-g4-27">
          <mxGeometry relative="1" as="geometry" />
        </mxCell>
        <mxCell id="yrOVRIiMDCrw_vPQ0-g4-29" style="edgeStyle=orthogonalEdgeStyle;rounded=0;orthogonalLoop=1;jettySize=auto;html=1;exitX=0;exitY=0.5;exitDx=0;exitDy=0;entryX=1;entryY=0.25;entryDx=0;entryDy=0;endArrow=open;endFill=0;" edge="1" parent="1" source="U5L8bIT946rRlEJdHNtD-81" target="yrOVRIiMDCrw_vPQ0-g4-27">
          <mxGeometry relative="1" as="geometry" />
        </mxCell>
      </root>
    </mxGraphModel>
  </diagram>
</mxfile>
